<svg width="40" height="27" viewBox="0 0 40 27" fill="none" xmlns="http://www.w3.org/2000/svg">
<g clip-path="url(#clip0_601_11)">
<path d="M36.6843 0.384521H3.60735C2.12043 0.384521 0.915039 1.58991 0.915039 3.07683V23.8461C0.915039 25.333 2.12043 26.5384 3.60735 26.5384H36.6843C38.1712 26.5384 39.3766 25.333 39.3766 23.8461V3.07683C39.3766 1.58991 38.1712 0.384521 36.6843 0.384521Z" fill="#006FCF" stroke="#F3F3F3"/>
<path fill-rule="evenodd" clip-rule="evenodd" d="M8.55434 19.4479V13.9054H14.8608L15.5374 14.7262L16.2364 13.9054H39.1273V19.0656C39.1273 19.0656 38.5287 19.4423 37.8363 19.4479H25.1611L24.3983 18.5742V19.4479H21.8985V17.9565C21.8985 17.9565 21.557 18.1646 20.8187 18.1646H19.9679V19.4479H16.1829L15.5073 18.6095L14.8213 19.4479H8.55434ZM1.20654 9.72802L2.62545 6.64282H5.0793L5.88454 8.37102V6.64282H8.93488L9.41427 7.89194L9.87896 6.64282H23.572V7.27079C23.572 7.27079 24.2918 6.64282 25.4748 6.64282L29.9177 6.65731L30.709 8.36287V6.64282H33.2617L33.9643 7.62255V6.64282H36.5403V12.1853H33.9643L33.291 11.2024V12.1853H29.5405L29.1633 11.3116H28.155L27.784 12.1853H25.2406C24.2227 12.1853 23.572 11.5702 23.572 11.5702V12.1853H19.737L18.9759 11.3116V12.1853H4.71577L4.33887 11.3116H3.33383L2.95959 12.1853H1.20654V9.72802ZM1.21388 11.476L3.12767 7.32603H4.57857L6.49054 11.476H5.21711L4.86582 10.645H2.81297L2.45986 11.476H1.21388ZM4.46151 9.7441L3.83577 8.29187L3.20821 9.7441H4.46151ZM6.62218 11.4755V7.32546L8.3928 7.3316L9.42265 10.0073L10.4278 7.32546H12.1843V11.4755H11.0719V8.41756L9.89265 11.4755H8.91704L7.73457 8.41756V11.4755H6.62218ZM12.9454 11.4755V7.32546H16.5754V8.25379H14.0695V8.96364H16.5168V9.83733H14.0695V10.5745H16.5754V11.4755H12.9454ZM17.2194 11.476V7.32603H19.695C20.5152 7.32603 21.2501 7.7991 21.2501 8.67241C21.2501 9.41895 20.6305 9.89979 20.0297 9.9471L21.4934 11.476H20.134L18.8003 10.0017H18.3319V11.476H17.2194ZM19.6034 8.25425H18.3319V9.12794H19.6199C19.8429 9.12794 20.1304 8.96679 20.1304 8.6911C20.1304 8.47679 19.9085 8.25425 19.6034 8.25425ZM22.8401 11.4755H21.7043V7.32546H22.8401V11.4755ZM25.5333 11.4755H25.2881C24.1019 11.4755 23.3817 10.6039 23.3817 9.41756C23.3817 8.20194 24.0938 7.32546 25.5918 7.32546H26.8213V8.30833H25.5469C24.9387 8.30833 24.5087 8.75094 24.5087 9.42779C24.5087 10.2315 25.0004 10.569 25.709 10.569H26.0017L25.5333 11.4755ZM26.0402 11.476L27.954 7.32603H29.4049L31.3168 11.476H30.0434L29.6921 10.645H27.6393L27.2862 11.476H26.0402ZM29.2878 9.7441L28.662 8.29187L28.0345 9.7441H29.2878ZM31.4467 11.4755V7.32546H32.861L34.6668 9.93287V7.32546H35.7792V11.4755H34.4107L32.5591 8.79979V11.4755H31.4467ZM9.31542 18.7379V14.5879H12.9454V15.5162H10.4396V16.226H12.8869V17.0997H10.4396V17.8369H12.9454V18.7379H9.31542ZM27.1023 18.7379V14.5879H30.7323V15.5162H28.2265V16.226H30.6621V17.0997H28.2265V17.8369H30.7323V18.7379H27.1023ZM13.0863 18.7379L14.8537 16.6885L13.0443 14.5879H14.4457L15.5234 15.8865L16.6047 14.5879H17.9513L16.1656 16.6629L17.9363 18.7379H16.535L15.4887 17.4598L14.4677 18.7379H13.0863ZM18.0683 18.7386V14.5886H20.5256C21.5338 14.5886 22.1228 15.1946 22.1228 15.9845C22.1228 16.9379 21.3718 17.4281 20.381 17.4281H19.21V18.7386H18.0683ZM20.4433 15.5271H19.2101V16.4827H20.4397C20.7645 16.4827 20.9922 16.2819 20.9922 16.0049C20.9922 15.7101 20.7633 15.5271 20.4433 15.5271ZM22.6059 18.7379V14.5879H25.0813C25.9017 14.5879 26.6366 15.0609 26.6366 15.9343C26.6366 16.6808 26.0169 17.1616 25.4162 17.2089L26.8799 18.7379H25.5205L24.1867 17.2636H23.7183V18.7379H22.6059ZM24.9899 15.5161H23.7183V16.3898H25.0064C25.2293 16.3898 25.5169 16.2287 25.5169 15.9529C25.5169 15.7386 25.295 15.5161 24.9899 15.5161ZM31.2476 18.7379V17.8369H33.4739C33.8033 17.8369 33.9459 17.6709 33.9459 17.4888C33.9459 17.3143 33.8037 17.1379 33.4739 17.1379H32.4678C31.5933 17.1379 31.1063 16.641 31.1063 15.895C31.1063 15.2296 31.5523 14.5879 32.8518 14.5879H35.018L34.5497 15.5216H32.6761C32.318 15.5216 32.2077 15.6969 32.2077 15.8643C32.2077 16.0363 32.344 16.226 32.6176 16.226H33.6714C34.6463 16.226 35.0693 16.7418 35.0693 17.4172C35.0693 18.1433 34.598 18.7379 33.6184 18.7379H31.2476ZM35.1675 18.7379V17.8369H37.3938C37.7232 17.8369 37.8658 17.6709 37.8658 17.4888C37.8658 17.3143 37.7237 17.1379 37.3938 17.1379H36.3877C35.5133 17.1379 35.0263 16.641 35.0263 15.895C35.0263 15.2296 35.4723 14.5879 36.7717 14.5879H38.938L38.4696 15.5216H36.596C36.238 15.5216 36.1277 15.6969 36.1277 15.8643C36.1277 16.0363 36.2639 16.226 36.5375 16.226H37.5914C38.5662 16.226 38.9892 16.7418 38.9892 17.4172C38.9892 18.1433 38.5179 18.7379 37.5383 18.7379H35.1675Z" fill="white"/>
</g>
<defs>
<clipPath id="clip0_601_11">
<rect width="40" height="26.9231" fill="white"/>
</clipPath>
</defs>
</svg>
