<svg width="100" height="20" viewBox="0 0 100 20" fill="none" xmlns="http://www.w3.org/2000/svg">
  <g clip-path="url(#clip0_5205_52448)">
    <g clip-path="url(#clip1_5205_52448)">
      <path
        d="M0 1.81731C0 1.67197 0.0363372 1.52662 0.109012 1.45394C0.181686 1.38127 0.327035 1.30859 0.472384 1.30859H7.48547C7.99419 1.30859 8.46657 1.38127 8.90262 1.52662C9.33866 1.67197 9.77471 1.85365 10.1381 2.10801C10.5015 2.36237 10.8648 2.65307 11.1555 2.98011C11.4462 3.30714 11.7006 3.67051 11.9186 4.07022C12.1366 4.46993 12.282 4.86964 12.391 5.30569C12.5 5.74173 12.5727 6.17778 12.5727 6.61383C12.5727 7.2679 12.4637 7.92197 12.2093 8.5397C11.9549 9.15743 11.6279 9.73883 11.1919 10.2112C10.7558 10.6836 10.2108 11.0833 9.62936 11.4103C9.01163 11.701 8.32122 11.8827 7.59448 11.8827H4.28779V17.1153C4.28779 17.4423 4.1061 17.5877 3.77907 17.5877H0.508721C0.363372 17.5877 0.25436 17.5513 0.145349 17.4787C0.0726744 17.406 0 17.297 0 17.1153L0 1.81731ZM8.24855 6.61383C8.24855 6.3958 8.21221 6.17778 8.13953 5.95976C8.06686 5.74173 7.95785 5.56005 7.8125 5.37836C7.66715 5.19668 7.48547 5.05133 7.26744 4.94231C7.04942 4.8333 6.8314 4.76063 6.57703 4.76063H4.25145V8.43069H6.57703C6.8314 8.43069 7.08576 8.39435 7.30378 8.28534C7.5218 8.17633 7.70349 8.03098 7.84884 7.88563C7.99419 7.70394 8.1032 7.52226 8.17587 7.30423C8.21221 7.04987 8.24855 6.83185 8.24855 6.61383Z"
        fill="#941F7F" />
      <path
        d="M19.0412 1.74464C19.0412 1.7083 19.0775 1.67197 19.1139 1.59929C19.1502 1.52662 19.1866 1.49028 19.2592 1.45394C19.3319 1.41761 19.3682 1.38127 19.4409 1.34493C19.5136 1.30859 19.5863 1.30859 19.6226 1.30859H22.4206C22.5296 1.30859 22.6386 1.34493 22.7476 1.41761C22.8203 1.49028 22.8929 1.56295 22.9293 1.63563L23.22 2.25336L28.9976 17.0789C29.0703 17.2243 29.0339 17.3333 28.9613 17.4423C28.8886 17.515 28.7432 17.5877 28.5616 17.5877H25.4002C25.2185 17.5877 25.1095 17.5513 25.0005 17.4787C24.8915 17.406 24.8188 17.297 24.7825 17.1516C24.6371 16.7882 24.4918 16.4249 24.3464 16.0252C24.2011 15.6618 24.0557 15.2984 23.9467 14.8987H18.1328C17.9874 15.2621 17.8421 15.6255 17.6967 16.0252C17.5514 16.4249 17.406 16.7519 17.2607 17.1516C17.1517 17.406 16.97 17.5513 16.7156 17.5513H13.4816C13.3363 17.5513 13.2272 17.515 13.1182 17.4423C13.0092 17.3696 13.0092 17.2606 13.0819 17.1153L19.0412 1.74464ZM21.0397 6.43214C20.8944 6.79551 20.7491 7.19522 20.6037 7.63127C20.4584 8.06731 20.313 8.50336 20.1677 8.93941C20.0223 9.37545 19.877 9.8115 19.7316 10.2475C19.5863 10.6836 19.4409 11.0833 19.2956 11.4467H22.6749L21.0397 6.43214Z"
        fill="#941F7F" />
      <path
        d="M33.83 7.30423L36.4826 1.63563C36.5189 1.56295 36.5553 1.49028 36.5916 1.45394C36.628 1.41761 36.6643 1.38127 36.6643 1.38127C36.7006 1.38127 36.737 1.34493 36.7733 1.34493C36.8096 1.34493 36.846 1.34493 36.8823 1.30859H41.0974C41.1338 1.30859 41.2064 1.30859 41.2428 1.34493C41.2791 1.38127 41.2791 1.41761 41.2791 1.45394C41.2791 1.52662 41.2428 1.63563 41.1338 1.74464L35.9375 10.938V17.0789C35.9375 17.406 35.7559 17.5877 35.4288 17.5877H32.1585C32.0131 17.5877 31.9041 17.5513 31.8314 17.4423C31.7588 17.3333 31.7224 17.2243 31.7224 17.0789V10.9016L26.5262 1.74464C26.4172 1.63563 26.3809 1.56295 26.3809 1.45394C26.3809 1.41761 26.3809 1.38127 26.4172 1.34493C26.4535 1.30859 26.4899 1.30859 26.5262 1.30859H30.7413C30.7777 1.30859 30.814 1.34493 30.8503 1.34493C30.8867 1.34493 30.923 1.34493 30.923 1.38127C30.9593 1.41761 30.9957 1.41761 30.9957 1.45394C31.032 1.49028 31.0684 1.56295 31.1047 1.63563L33.83 7.30423Z"
        fill="#941F7F" />
      <path
        d="M42.8418 1.78098C42.8418 1.63563 42.8781 1.52662 42.9508 1.45394C43.0235 1.34493 43.1688 1.30859 43.3142 1.30859H46.9116C47.0206 1.30859 47.1296 1.34493 47.2386 1.38127C47.3476 1.41761 47.4566 1.52662 47.5293 1.63563C48.4741 3.12545 49.3825 4.61528 50.2909 6.06877C51.1994 7.52226 52.1441 9.01208 53.0526 10.5019V1.7083C53.0889 1.56295 53.1252 1.49028 53.2342 1.41761C53.3069 1.34493 53.4159 1.30859 53.5249 1.30859H56.6499C56.7953 1.30859 56.9406 1.34493 57.0496 1.41761C57.1587 1.49028 57.195 1.63563 57.195 1.78098V17.1516C57.195 17.297 57.1587 17.406 57.0496 17.4787C56.977 17.5513 56.8316 17.5877 56.6863 17.5877H53.1979C53.0889 17.5877 53.0162 17.5513 52.9435 17.4787C52.8709 17.406 52.7982 17.3333 52.7255 17.2243C51.7444 15.6255 50.7996 14.0266 49.8549 12.4641C48.9101 10.9016 47.929 9.30278 46.9479 7.70394V17.1153C46.9479 17.2606 46.9116 17.406 46.8389 17.4787C46.7662 17.5513 46.6209 17.5877 46.4392 17.5877H43.3142C43.1325 17.5877 43.0235 17.5513 42.9508 17.4423C42.8781 17.3696 42.8418 17.2243 42.8418 17.1153V1.78098Z"
        fill="#941F7F" />
      <path
        d="M82.9218 17.3333C82.8492 17.2243 82.7765 17.0789 82.7038 16.9336C82.6311 16.7882 82.5948 16.6792 82.5221 16.5339C81.5774 14.063 80.6326 11.592 79.6878 9.15743C78.7431 6.72284 77.7983 4.25191 76.8535 1.78098C76.8535 1.74464 76.8535 1.7083 76.8535 1.67197C76.8535 1.63563 76.8535 1.59929 76.8535 1.59929C76.8535 1.38127 76.9989 1.30859 77.2532 1.30859H80.7779C81.0686 1.30859 81.2503 1.45394 81.3593 1.7083L84.7024 11.701L87.791 1.7083C87.9 1.41761 88.0817 1.30859 88.4087 1.30859H91.9698C92.1515 1.30859 92.2605 1.34493 92.3332 1.41761C92.4058 1.49028 92.4422 1.56295 92.4422 1.67197C92.4422 1.74464 92.4422 1.78098 92.4422 1.78098V1.81731L90.48 7.37691L91.9335 11.701L95.4945 1.7083C95.6035 1.41761 95.7852 1.30859 96.1122 1.30859H99.5643C99.746 1.30859 99.855 1.34493 99.9276 1.41761C100 1.49028 100.037 1.56295 100.037 1.67197C100.037 1.74464 100.037 1.78098 100.037 1.78098V1.81731C99.5279 3.08912 99.0192 4.39726 98.5105 5.66906C98.0018 6.94086 97.4567 8.21266 96.948 9.5208C96.4393 10.7926 95.8942 12.0644 95.3855 13.3725C94.8768 14.6443 94.368 15.9525 93.8957 17.2243C93.8593 17.297 93.7867 17.406 93.714 17.4787C93.605 17.5877 93.496 17.624 93.3506 17.624H93.3143H90.6617C90.5163 17.624 90.371 17.5877 90.2983 17.515C90.2256 17.4423 90.1529 17.3696 90.1166 17.2606L88.3724 12.6821C88.118 13.3362 87.8637 13.9903 87.6457 14.6443C87.3913 15.2984 87.1733 15.9525 86.9189 16.6066C86.8826 16.7156 86.8462 16.8246 86.8099 16.9336C86.7736 17.0426 86.7009 17.1516 86.6282 17.2606C86.5555 17.3696 86.4829 17.4423 86.4102 17.515C86.3375 17.5877 86.2285 17.624 86.1195 17.624H86.0832H83.4306C83.1399 17.5877 82.9945 17.515 82.9218 17.3333Z"
        fill="#941F7F" />
      <mask id="mask0_5205_52448" style="mask-type:luminance" maskUnits="userSpaceOnUse" x="58"
        y="0" width="20" height="20">
        <path
          d="M62.3548 1.99855C58.2124 5.23256 57.4857 11.2282 60.6833 15.3706C62.5002 17.6962 65.2255 19.0407 68.2051 19.0407C70.349 19.0407 72.3476 18.3503 74.0554 17.0422C76.054 15.4797 77.3258 13.2267 77.6528 10.7195C77.9798 8.17587 77.2894 5.70494 75.7269 3.70639C75.3272 3.19767 74.8548 2.72529 74.3825 2.28924C74.2734 2.21657 74.1281 2.1439 74.0191 2.1439C73.8374 2.1439 73.6557 2.21657 73.5467 2.39826L68.2778 9.62936L65.6252 6.39535C65.5162 6.25 65.3708 6.17732 65.2255 6.17732C65.0438 6.17732 64.8985 6.25 64.7894 6.39535L63.663 7.92151C63.4813 8.17587 63.4813 8.53924 63.6993 8.75727L67.9508 13.9898C68.0598 14.1352 68.2051 14.2078 68.3505 14.2078C68.5322 14.2078 68.6775 14.1352 68.7865 13.9898L74.2734 6.43169C75.7633 9.33866 75.0002 12.8997 72.3839 14.9346C71.1848 15.8794 69.7313 16.3881 68.1688 16.3881C66.0249 16.3881 64.0627 15.4433 62.7546 13.7355C61.6281 12.282 61.1557 10.5015 61.3737 8.68459C61.5918 6.86773 62.5002 5.26889 63.9537 4.14244C65.1528 3.19767 66.6063 2.68895 68.1688 2.68895C69.1136 2.68895 70.022 2.87064 70.8578 3.23401C71.1484 3.34302 71.4755 3.27035 71.6572 3.01599L72.5293 1.78052C72.6383 1.63517 72.6746 1.48983 72.6383 1.30814C72.6019 1.16279 72.4929 1.01744 72.3476 0.944767C71.0394 0.290698 69.6223 0 68.1688 0C66.0612 0 64.0627 0.690407 62.3548 1.99855Z"
          fill="white" />
      </mask>
      <g mask="url(#mask0_5205_52448)">
        <path d="M87.4997 9.59207L67.6596 29.2868L47.9648 9.44672L67.805 -10.248L87.4997 9.59207Z"
          fill="url(#paint0_linear_5205_52448)" />
      </g>
    </g>
  </g>
  <defs>
    <linearGradient id="paint0_linear_5205_52448" x1="77.4953" y1="-0.188118" x2="61.0117"
      y2="16.1905" gradientUnits="userSpaceOnUse">
      <stop stop-color="#E83762" />
      <stop offset="1" stop-color="#9A1F81" />
    </linearGradient>
    <clipPath id="clip0_5205_52448">
      <rect width="100" height="20" fill="white" />
    </clipPath>
    <clipPath id="clip1_5205_52448">
      <rect width="100" height="19.0407" fill="white" />
    </clipPath>
  </defs>
</svg>
